<svg xmlns="http://www.w3.org/2000/svg" viewBox="0 0 500 500"><g id="freepik--background-simple--inject-74"><path d="M53.23,176.13c-9.12,103.61,184.17,30.24,211.31,53.44,41.19,35.22-20.94,89.31,22.78,127.17,61.5,53.26,105.59-15.58,120.66-42,15.23-26.69,42.11-93.81-7.07-139.41-75.11-69.64-109.07-5.44-168.66-27.85-28.1-10.57-16.35-48.94-60.16-66.4C95.68,50.61,56.49,139.11,53.23,176.13Z" style="fill:#F38181"/><path d="M53.23,176.13c-9.12,103.61,184.17,30.24,211.31,53.44,41.19,35.22-20.94,89.31,22.78,127.17,61.5,53.26,105.59-15.58,120.66-42,15.23-26.69,42.11-93.81-7.07-139.41-75.11-69.64-109.07-5.44-168.66-27.85-28.1-10.57-16.35-48.94-60.16-66.4C95.68,50.61,56.49,139.11,53.23,176.13Z" style="fill:#fff;opacity:0.9"/></g><g id="freepik--Shadow--inject-74"><ellipse id="freepik--path--inject-74" cx="250" cy="416.24" rx="193.89" ry="11.32" style="fill:#f5f5f5"/></g><g id="freepik--Player--inject-74"><path d="M334,315H122.78a10.05,10.05,0,0,1-9.69-8.69L92.18,125a7.61,7.61,0,0,1,7.69-8.69H311a10,10,0,0,1,9.69,8.69l20.91,181.29A7.61,7.61,0,0,1,334,315Z" style="fill:#F38181"/><path d="M335.09,315H126.88a10,10,0,0,1-9.68-8.69L96.29,125a7.6,7.6,0,0,1,7.68-8.69H312.18a10.05,10.05,0,0,1,9.69,8.69l20.91,181.29A7.61,7.61,0,0,1,335.09,315Z" style="fill:#F38181"/><path d="M335.09,315H126.88a10,10,0,0,1-9.68-8.69L96.29,125a7.6,7.6,0,0,1,7.68-8.69H312.18a10.05,10.05,0,0,1,9.69,8.69l20.91,181.29A7.61,7.61,0,0,1,335.09,315Z" style="fill:#fff;opacity:0.8"/><path d="M312.68,120.69H104.47l-.71,0c-5.38.45-3.92,8.66,1.53,8.66H313.86c5.45,0,5-8.21-.47-8.66Z" style="fill:#F38181"/><path d="M108.39,127.49a2.78,2.78,0,0,1-2.68-2.41,2.2,2.2,0,0,1,2.23-2.51,2.77,2.77,0,0,1,2.68,2.4,2.21,2.21,0,0,1-2.23,2.52Zm-.45-4a1.3,1.3,0,0,0-1,.42,1.35,1.35,0,0,0-.31,1,1.82,1.82,0,0,0,1.75,1.58,1.3,1.3,0,0,0,1-.42,1.38,1.38,0,0,0,.31-1h0A1.81,1.81,0,0,0,107.94,123.51Z" style="fill:#fafafa"/><path d="M115.17,127.49a2.78,2.78,0,0,1-2.69-2.41,2.2,2.2,0,0,1,2.23-2.51,2.79,2.79,0,0,1,2.69,2.4,2.29,2.29,0,0,1-.54,1.78A2.23,2.23,0,0,1,115.17,127.49Zm-.46-4a1.31,1.31,0,0,0-1,.42,1.35,1.35,0,0,0-.31,1,1.82,1.82,0,0,0,1.76,1.58,1.27,1.27,0,0,0,1.29-1.47h0A1.81,1.81,0,0,0,114.71,123.51Z" style="fill:#fafafa"/><path d="M121.94,127.49a2.78,2.78,0,0,1-2.69-2.41,2.26,2.26,0,0,1,.54-1.78,2.23,2.23,0,0,1,1.69-.73,2.79,2.79,0,0,1,2.69,2.4h0a2.21,2.21,0,0,1-2.23,2.52Zm-.46-4a1.27,1.27,0,0,0-1.29,1.46,1.81,1.81,0,0,0,1.75,1.58,1.27,1.27,0,0,0,1.29-1.47h0A1.8,1.8,0,0,0,121.48,123.51Z" style="fill:#fafafa"/><path d="M328.87,300.62H129.79a3.63,3.63,0,0,1-3.51-3.14l-18-155.7a2.75,2.75,0,0,1,2.78-3.15H310.19a3.63,3.63,0,0,1,3.51,3.15l18,155.7A2.75,2.75,0,0,1,328.87,300.62Z" style="fill:#fff"/><polygon points="322.52 292.96 136.37 292.96 136.15 291.08 322.31 291.08 322.52 292.96" style="fill:#F38181;opacity:0.5"/><path d="M138.26,292a1.74,1.74,0,0,1-1.77,2,2.31,2.31,0,0,1-2.23-2,1.75,1.75,0,0,1,1.77-2A2.3,2.3,0,0,1,138.26,292Z" style="fill:#F38181"/><polygon points="275.59 205.75 198.77 161.33 210.46 262.67 275.59 205.75" style="fill:#F38181;opacity:0.7000000000000001"/><polygon points="202.7 262.67 210.46 262.67 198.77 161.33 191.01 161.33 202.7 262.67" style="fill:#F38181"/></g></svg>